<?xml version="1.0" encoding="UTF-8" standalone="no"?>
<!-- Created with Inkscape (http://www.inkscape.org/) -->

<svg
   xmlns:dc="http://purl.org/dc/elements/1.1/"
   xmlns:cc="http://creativecommons.org/ns#"
   xmlns:rdf="http://www.w3.org/1999/02/22-rdf-syntax-ns#"
   xmlns:svg="http://www.w3.org/2000/svg"
   xmlns="http://www.w3.org/2000/svg"
   xmlns:sodipodi="http://sodipodi.sourceforge.net/DTD/sodipodi-0.dtd"
   xmlns:inkscape="http://www.inkscape.org/namespaces/inkscape"
   width="64px"
   height="64px"
   id="svg2985"
   version="1.1"
   inkscape:version="0.48.4 r9939"
   sodipodi:docname="heiltrank.svg">
  <defs
     id="defs2987" />
  <sodipodi:namedview
     id="base"
     pagecolor="#ffffff"
     bordercolor="#666666"
     borderopacity="1.0"
     inkscape:pageopacity="0.0"
     inkscape:pageshadow="2"
     inkscape:zoom="11.3125"
     inkscape:cx="32.220994"
     inkscape:cy="32"
     inkscape:current-layer="layer1"
     showgrid="false"
     inkscape:document-units="px"
     inkscape:grid-bbox="true"
     inkscape:window-width="1328"
     inkscape:window-height="949"
     inkscape:window-x="0"
     inkscape:window-y="37"
     inkscape:window-maximized="0">
    <inkscape:grid
       type="xygrid"
       id="grid2993" />
  </sodipodi:namedview>
  <metadata
     id="metadata2990">
    <rdf:RDF>
      <cc:Work
         rdf:about="">
        <dc:format>image/svg+xml</dc:format>
        <dc:type
           rdf:resource="http://purl.org/dc/dcmitype/StillImage" />
        <dc:title></dc:title>
      </cc:Work>
    </rdf:RDF>
  </metadata>
  <g
     id="layer1"
     inkscape:label="Layer 1"
     inkscape:groupmode="layer">
    <path
       style="fill:#000000;stroke:#000000;stroke-width:0;stroke-linecap:butt;stroke-linejoin:miter;stroke-miterlimit:4;stroke-opacity:1;stroke-dasharray:none"
       d="M 26.593211,8.2782015 C 31.911555,5.1159431 42.232331,6.5050511 42.333346,8.8547508 L 39.525627,18.658665 27.565484,17.68143 z"
       id="path2995"
       inkscape:connector-curvature="0"
       sodipodi:nodetypes="ccccc" />
    <path
       style="fill:#000000;stroke:#000000;stroke-width:0;stroke-linecap:butt;stroke-linejoin:miter;stroke-miterlimit:4;stroke-opacity:1;stroke-dasharray:none"
       d="m 25.990475,13.483977 c -2.990035,-0.244308 -1.314493,4.554489 0.114246,5.11469 0.705221,4.065083 0.293996,6.589566 -0.257674,8.920246 -14.36068,3.843286 -17.7052113,28.905781 4.615101,29.473732 19.993528,0.508744 23.881397,-22.12869 9.338399,-28.333625 -0.349049,-2.677608 -0.762386,-7.06279 1.376013,-8.53508 2.134201,-1.123033 3.750808,-5.092675 0.760772,-5.336984 -5.980071,-0.488617 -8.970107,-0.732926 -15.946857,-1.302979 z"
       id="path2997"
       inkscape:connector-curvature="0"
       sodipodi:nodetypes="cccscccc" />
    <path
       sodipodi:nodetypes="cccscccc"
       inkscape:connector-curvature="0"
       id="path3850"
       d="m 25.919531,14.190592 c -2.600876,-0.228951 -0.171033,3.472636 1.071756,3.997625 0.613435,3.809572 -0.0095,8.208527 -0.489331,10.392712 -12.580009,2.098953 -15.357894,26.271599 4.898415,27.355961 17.381347,0.930459 21.21518,-20.207401 7.769399,-26.729505 -0.30362,-2.509306 -0.720686,-6.365279 1.062504,-9.567541 1.860075,-0.914543 3.397052,-2.673251 2.298936,-4.31657 -3.080209,3.961985 -17.703186,1.788281 -16.611679,-1.132682 z"
       style="fill:#2a2aff;stroke:#000000;stroke-width:0;stroke-linecap:butt;stroke-linejoin:miter;stroke-miterlimit:4;stroke-opacity:1;stroke-dasharray:none" />
    <path
       style="fill:#0000d4;stroke:#000000;stroke-width:0;stroke-linecap:butt;stroke-linejoin:miter;stroke-miterlimit:4;stroke-opacity:1;stroke-dasharray:none"
       d="m 25.765611,28.515592 c -12.816274,4.689038 -16.4572625,25.933086 4.777973,27.480374 20.015007,0.632045 20.721527,-21.553115 9.087129,-26.517064 -4.312459,3.66097 -9.272462,2.664716 -13.865102,-0.96331 z"
       id="path3770"
       inkscape:connector-curvature="0"
       sodipodi:nodetypes="cccc" />
    <path
       sodipodi:type="arc"
       style="fill:#2a2aff;fill-opacity:1;stroke-width:0;stroke-miterlimit:4;stroke-dasharray:none"
       id="path3772"
       sodipodi:cx="24.5"
       sodipodi:cy="34"
       sodipodi:rx="2.5"
       sodipodi:ry="3"
       d="m 27,34 a 2.5,3 0 1 1 -5,0 2.5,3 0 1 1 5,0 z"
       transform="matrix(1.2146119,0.09924299,-0.08143619,0.99667856,-2.8738507,1.6077275)" />
    <path
       transform="matrix(0.92962208,0.07595717,-0.06431426,0.78712722,9.622308,6.4680544)"
       d="m 27,34 a 2.5,3 0 1 1 -5,0 2.5,3 0 1 1 5,0 z"
       sodipodi:ry="3"
       sodipodi:rx="2.5"
       sodipodi:cy="34"
       sodipodi:cx="24.5"
       id="path3774"
       style="fill:#2a2aff;fill-opacity:1;stroke-width:0;stroke-miterlimit:4;stroke-dasharray:none"
       sodipodi:type="arc" />
    <path
       sodipodi:type="arc"
       style="fill:#0000ff;fill-opacity:1;stroke-width:0;stroke-miterlimit:4;stroke-dasharray:none"
       id="path3776"
       sodipodi:cx="24.5"
       sodipodi:cy="34"
       sodipodi:rx="2.5"
       sodipodi:ry="3"
       d="m 27,34 a 2.5,3 0 1 1 -5,0 2.5,3 0 1 1 5,0 z"
       transform="matrix(0.77874512,0.06362938,-0.0540411,0.66139642,5.0613939,20.566586)" />
    <path
       transform="matrix(0.66139637,0.04537917,-0.0449094,0.4615379,10.09049,22.682276)"
       d="m 27,34 a 2.5,3 0 1 1 -5,0 2.5,3 0 1 1 5,0 z"
       sodipodi:ry="3"
       sodipodi:rx="2.5"
       sodipodi:cy="34"
       sodipodi:cx="24.5"
       id="path3778"
       style="fill:#0000d4;fill-opacity:1;stroke-width:0;stroke-miterlimit:4;stroke-dasharray:none"
       sodipodi:type="arc" />
    <path
       sodipodi:type="arc"
       style="fill:#0000d4;fill-opacity:1;stroke-width:0;stroke-miterlimit:4;stroke-dasharray:none"
       id="path3780"
       sodipodi:cx="24.5"
       sodipodi:cy="34"
       sodipodi:rx="2.5"
       sodipodi:ry="3"
       d="m 27,34 a 2.5,3 0 1 1 -5,0 2.5,3 0 1 1 5,0 z"
       transform="matrix(0.51051941,0.03159947,-0.03463624,0.32112471,18.854694,24.549927)" />
    <path
       transform="matrix(0.44346298,0.03623429,-0.02664601,0.32611428,12.128791,33.210405)"
       d="m 27,34 a 2.5,3 0 1 1 -5,0 2.5,3 0 1 1 5,0 z"
       sodipodi:ry="3"
       sodipodi:rx="2.5"
       sodipodi:cy="34"
       sodipodi:cx="24.5"
       id="path3782"
       style="fill:#2a2aff;fill-opacity:1;stroke-width:0;stroke-miterlimit:4;stroke-dasharray:none"
       sodipodi:type="arc" />
    <path
       style="fill:#2a2aff;stroke:#000000;stroke-width:0;stroke-linecap:butt;stroke-linejoin:miter;stroke-miterlimit:4;stroke-opacity:1;stroke-dasharray:none"
       d="M 41.896225,30.726851 C 55.331821,42.911858 42.418872,59.9945 27.104597,55.373764 43.472878,55.138679 49.889098,43.41992 41.896225,30.726851 z"
       id="path3784"
       inkscape:connector-curvature="0"
       sodipodi:nodetypes="ccc" />
    <path
       sodipodi:nodetypes="ccc"
       inkscape:connector-curvature="0"
       id="path3786"
       d="m 41.937332,14.786956 c 5.88012,5.646781 -23.423166,2.911862 -15.946857,-1.037786 -2.5973,2.904114 17.202469,5.480762 15.946857,1.037786 z"
       style="fill:#0000d4;stroke:#000000;stroke-width:0;stroke-linecap:butt;stroke-linejoin:miter;stroke-miterlimit:4;stroke-opacity:1;stroke-dasharray:none" />
    <path
       sodipodi:type="arc"
       style="fill:#2a2aff;fill-opacity:1;stroke-width:0;stroke-miterlimit:4;stroke-dasharray:none"
       id="path3788"
       sodipodi:cx="24.5"
       sodipodi:cy="34"
       sodipodi:rx="2.5"
       sodipodi:ry="3"
       d="m 27,34 a 2.5,3 0 1 1 -5,0 2.5,3 0 1 1 5,0 z"
       transform="matrix(1.4493094,0.16216748,-0.09741666,1.6327183,-1.4252209,-14.788277)" />
    <path
       transform="matrix(0.51051941,0.0417133,-0.03463624,0.4239049,13.863284,17.558979)"
       d="m 27,34 a 2.5,3 0 1 1 -5,0 2.5,3 0 1 1 5,0 z"
       sodipodi:ry="3"
       sodipodi:rx="2.5"
       sodipodi:cy="34"
       sodipodi:cx="24.5"
       id="path3790"
       style="fill:#0000ff;fill-opacity:1;stroke-width:0;stroke-miterlimit:4;stroke-dasharray:none"
       sodipodi:type="arc" />
    <path
       sodipodi:type="arc"
       style="fill:#0000ff;fill-opacity:1;stroke-width:0;stroke-miterlimit:4;stroke-dasharray:none"
       id="path3792"
       sodipodi:cx="24.5"
       sodipodi:cy="34"
       sodipodi:rx="2.5"
       sodipodi:ry="3"
       d="m 27,34 a 2.5,3 0 1 1 -5,0 2.5,3 0 1 1 5,0 z"
       transform="matrix(0.42669887,0.03486453,-0.02778747,0.34008437,9.4319346,28.419462)" />
    <path
       transform="matrix(0.32611423,0.026646,-0.02208016,0.27023392,15.182753,39.0009)"
       d="m 27,34 a 2.5,3 0 1 1 -5,0 2.5,3 0 1 1 5,0 z"
       sodipodi:ry="3"
       sodipodi:rx="2.5"
       sodipodi:cy="34"
       sodipodi:cx="24.5"
       id="path3794"
       style="fill:#2a2aff;fill-opacity:1;stroke-width:0;stroke-miterlimit:4;stroke-dasharray:none"
       sodipodi:type="arc" />
    <path
       sodipodi:type="arc"
       style="fill:#5555ff;fill-opacity:1;stroke-width:0;stroke-miterlimit:4;stroke-dasharray:none"
       id="path3796"
       sodipodi:cx="24.5"
       sodipodi:cy="34"
       sodipodi:rx="2.5"
       sodipodi:ry="3"
       d="m 27,34 a 2.5,3 0 1 1 -5,0 2.5,3 0 1 1 5,0 z"
       transform="matrix(0.32611423,0.026646,-0.02208016,0.27023392,11.732721,34.75314)" />
    <path
       sodipodi:type="arc"
       style="fill:#5555ff;fill-opacity:1;stroke-width:0;stroke-miterlimit:4;stroke-dasharray:none"
       id="path3802"
       sodipodi:cx="24.5"
       sodipodi:cy="34"
       sodipodi:rx="2.5"
       sodipodi:ry="3"
       d="m 27,34 a 2.5,3 0 1 1 -5,0 2.5,3 0 1 1 5,0 z"
       transform="matrix(0.51051941,0.0417133,-0.02143848,0.26238056,25.705366,8.3121609)" />
    <path
       sodipodi:nodetypes="ccccc"
       inkscape:connector-curvature="0"
       id="path3798"
       d="m 27.04813,8.1379871 c -0.130396,3.7036159 11.653788,3.9920919 14.632494,1.106893 L 40.015198,14.973586 C 39.875234,16.611668 29.534921,16.398851 27.74712,14.23727 z"
       style="fill:#803300;stroke:#000000;stroke-width:0;stroke-linecap:butt;stroke-linejoin:miter;stroke-miterlimit:4;stroke-opacity:1;stroke-dasharray:none" />
    <path
       transform="matrix(0.3561991,0.0423886,-0.02319639,0.41347759,21.522419,-2.14975)"
       d="m 27,34 a 2.5,3 0 1 1 -5,0 2.5,3 0 1 1 5,0 z"
       sodipodi:ry="3"
       sodipodi:rx="2.5"
       sodipodi:cy="34"
       sodipodi:cx="24.5"
       id="path3852"
       style="fill:#552200;fill-opacity:1;stroke-width:0;stroke-miterlimit:4;stroke-dasharray:none"
       sodipodi:type="arc" />
    <path
       sodipodi:type="arc"
       style="fill:#552200;fill-opacity:1;stroke-width:0;stroke-miterlimit:4;stroke-dasharray:none"
       id="path3854"
       sodipodi:cx="24.5"
       sodipodi:cy="34"
       sodipodi:rx="2.5"
       sodipodi:ry="3"
       d="m 27,34 a 2.5,3 0 1 1 -5,0 2.5,3 0 1 1 5,0 z"
       transform="matrix(0.28569934,0.03937898,-0.0186053,0.3841203,27.425058,-0.98946849)" />
    <path
       transform="matrix(0.27522903,0.08616148,-0.08197838,0.37573143,35.582122,-2.3808047)"
       d="m 27,34 a 2.5,3 0 1 1 -5,0 2.5,3 0 1 1 5,0 z"
       sodipodi:ry="3"
       sodipodi:rx="2.5"
       sodipodi:cy="34"
       sodipodi:cx="24.5"
       id="path3856"
       style="fill:#aa4400;fill-opacity:1;stroke-width:0;stroke-miterlimit:4;stroke-dasharray:none"
       sodipodi:type="arc" />
    <path
       style="fill:#000000;fill-opacity:1;stroke-width:0;stroke-miterlimit:4"
       d="m 40.633377,21.196828 c -0.05031,0.703724 -4.721982,3.193252 -10.20056,2.070612 -3.743533,-0.767105 -4.199455,-3.097238 -4.149141,-3.800962 0.05031,-0.703724 2.944744,1.801319 6.729739,2.256802 4.40615,0.530233 7.670276,-1.230176 7.619962,-0.526452 z"
       id="path3858"
       inkscape:connector-curvature="0"
       sodipodi:nodetypes="sssss" />
    <path
       sodipodi:nodetypes="sssss"
       inkscape:connector-curvature="0"
       id="path3861"
       d="m 40.014554,26.247587 c -0.05372,0.876061 -3.449316,3.645118 -9.299097,2.247551 -3.997178,-0.954962 -6.076594,-3.525589 -6.02287,-4.401649 0.05372,-0.87606 3.144265,2.242447 7.185712,2.809474 4.70469,0.660083 8.189977,-1.531436 8.136255,-0.655376 z"
       style="fill:#000000;fill-opacity:1;stroke-width:0;stroke-miterlimit:4" />
    <path
       style="fill:#000000;fill-opacity:1;stroke-width:0;stroke-miterlimit:4"
       d="m 29.671935,25.059643 c -0.06054,-0.813392 -5.412274,-1.970004 -11.032083,-1.467989 -4.572691,0.408476 -6.541601,1.887461 -6.234417,3.467997 0.295856,1.52225 -0.173431,-2.552148 6.683297,-2.166513 5.328653,0.299693 10.643744,0.979898 10.583203,0.166505 z"
       id="path3863"
       inkscape:connector-curvature="0"
       sodipodi:nodetypes="sssss" />
    <path
       sodipodi:nodetypes="sssss"
       inkscape:connector-curvature="0"
       id="path3865"
       d="m 40.753481,21.015021 c 0.1895,0.791318 -2.701224,4.495512 -9.090975,5.331632 -4.366141,0.571327 -7.035196,-1.022235 -7.224696,-1.813553 -0.1895,-0.791319 3.850862,0.865256 8.154094,-0.06372 5.009437,-1.08143 7.972077,-4.245677 8.161577,-3.454358 z"
       style="fill:#000000;fill-opacity:1;stroke-width:0;stroke-miterlimit:4" />
    <path
       sodipodi:nodetypes="sssss"
       inkscape:connector-curvature="0"
       id="path3867"
       d="m 27.655325,20.253653 c 0.471838,0.644557 0.243381,6.97501 -5.999625,8.399517 -5.790941,1.321357 -9.444459,2.908775 -9.833312,2.706804 -0.708884,-0.368195 3.564899,-3.086191 9.934762,-4.834257 4.934637,-1.354201 5.426338,-6.916623 5.898175,-6.272064 z"
       style="fill:#000000;fill-opacity:1;stroke-width:0;stroke-miterlimit:4" />
    <path
       sodipodi:type="arc"
       style="fill:#000000;fill-opacity:1;stroke-width:0;stroke-miterlimit:4;stroke-dasharray:none"
       id="path3869"
       sodipodi:cx="26.784531"
       sodipodi:cy="24.618784"
       sodipodi:rx="3.1823204"
       sodipodi:ry="2.5193369"
       d="m 29.966851,24.618784 a 3.1823204,2.5193369 0 1 1 -6.364641,0 3.1823204,2.5193369 0 1 1 6.364641,0 z"
       transform="translate(-1.5911603,0.26519337)" />
    <path
       transform="matrix(0.59722221,0,0,0.6491228,9.1528549,8.7265678)"
       d="m 29.966851,24.618784 a 3.1823204,2.5193369 0 1 1 -6.364641,0 3.1823204,2.5193369 0 1 1 6.364641,0 z"
       sodipodi:ry="2.5193369"
       sodipodi:rx="3.1823204"
       sodipodi:cy="24.618784"
       sodipodi:cx="26.784531"
       id="path3873"
       style="fill:#4d4d4d;fill-opacity:1;stroke-width:0;stroke-miterlimit:4;stroke-dasharray:none"
       sodipodi:type="arc" />
    <path
       sodipodi:type="arc"
       style="fill:#999999;fill-opacity:1;stroke-width:0;stroke-miterlimit:4;stroke-dasharray:none"
       id="path3894"
       sodipodi:cx="25.193371"
       sodipodi:cy="24.751381"
       sodipodi:rx="1.0607735"
       sodipodi:ry="0.61878455"
       d="m 26.254144,24.751381 a 1.0607735,0.61878455 0 1 1 -2.121547,0 1.0607735,0.61878455 0 1 1 2.121547,0 z"
       transform="matrix(1,0,0,1.6428571,-0.08839779,-15.955801)" />
  </g>
</svg>
